<svg width="141" height="48" viewBox="0 0 141 48" fill="none" xmlns="http://www.w3.org/2000/svg">
<path d="M4.04899 2.08144C4.09396 0.977787 3.23574 0.0466373 2.13209 0.0016588C1.02843 -0.0433197 0.0972825 0.814906 0.052304 1.91856L2.05065 2L4.04899 2.08144ZM39.352 44.9036L39.8157 46.8491L39.352 44.9036ZM140.39 17.3302C141.184 16.5623 141.205 15.2961 140.437 14.5022L127.923 1.56386C127.156 0.769904 125.889 0.748798 125.095 1.51672C124.301 2.28464 124.28 3.5508 125.048 4.34475L136.172 15.8455L124.671 26.969C123.877 27.7369 123.856 29.0031 124.624 29.7971C125.392 30.591 126.658 30.6121 127.452 29.8442L140.39 17.3302ZM2.05065 2L0.052304 1.91856C-0.310995 10.833 1.139 23.8662 6.87249 33.808C9.7599 38.8148 13.7832 43.1193 19.2813 45.6413C24.7931 48.1694 31.5814 48.8116 39.8157 46.8491L39.352 44.9036L38.8883 42.9581C31.3494 44.7548 25.4997 44.0928 20.949 42.0055C16.3846 39.9118 12.921 36.2894 10.3376 31.8097C5.12932 22.7786 3.70178 10.6009 4.04899 2.08144L2.05065 2ZM39.352 44.9036L39.8157 46.8491C59.8635 42.0712 69.5921 32.5249 71.4853 23.2917C73.4074 13.9181 66.9984 5.7773 57.0297 5.31403L56.9369 7.31188L56.8441 9.30972C64.4603 9.66367 68.9753 15.6198 67.5669 22.4882C66.1297 29.4971 58.2733 38.3381 38.8883 42.9581L39.352 44.9036ZM56.9369 7.31188L57.0297 5.31403C54.5156 5.19719 52.3328 5.70171 50.6027 6.81377C48.8578 7.93535 47.7179 9.58396 47.1655 11.4758C46.0819 15.1864 47.2555 19.7005 50.0496 23.596C55.7621 31.5603 68.5634 37.6182 87.3407 32.113L86.778 30.1938L86.2153 28.2746C68.757 33.3931 57.8452 27.6015 53.2999 21.2646C50.9651 18.0095 50.3735 14.7601 51.0051 12.597C51.3103 11.5519 51.8981 10.7362 52.7655 10.1786C53.6477 9.61156 54.962 9.22226 56.8441 9.30972L56.9369 7.31188ZM86.778 30.1938L87.3407 32.113C105.596 26.7608 112.657 23.0236 118.061 20.7495C120.695 19.641 122.896 18.8969 125.897 18.4378C128.944 17.9718 132.875 17.7908 138.967 17.8923L139 15.8926L139.033 13.8929C132.869 13.7901 128.673 13.9667 125.292 14.4838C121.866 15.0079 119.337 15.8727 116.509 17.0626C110.99 19.3853 104.196 23.003 86.2153 28.2746L86.778 30.1938Z" fill="black"/>
</svg>
