<svg width="110" height="94" viewBox="0 0 110 94" fill="none" xmlns="http://www.w3.org/2000/svg">
<path d="M20.7646 92.9628V94H0V92.9628C2.47808 92.9628 4.35799 92.8331 5.63976 92.5738C7.00697 92.228 8.03238 91.623 8.71599 90.7586C9.3996 89.8078 10.0405 88.4248 10.6386 86.6097L37.6838 0H39.7347L67.6771 92.9628H76.0086V94H49.3479V92.9628H58.7048C58.6193 92.1848 58.4484 91.3637 58.192 90.4993C57.9357 89.5485 57.6793 88.6409 57.423 87.7766L50.3733 64.0497H19.0983L11.7922 86.9986C11.6213 87.6901 11.4931 88.2952 11.4077 88.8138C11.3222 89.246 11.2795 89.7214 11.2795 90.24C11.2795 91.1044 11.6213 91.7959 12.3049 92.3145C12.9885 92.7467 14.4412 92.9628 16.6629 92.9628H20.7646ZM19.3546 63.0124H50.1169L35.1203 12.3172L19.3546 63.0124Z" fill="#B0B0B0"/>
<path d="M54.7558 92.9628V94H33.9912V92.9628C36.4693 92.9628 38.3492 92.8331 39.631 92.5738C40.9982 92.228 42.0236 91.623 42.7072 90.7586C43.3908 89.8078 44.0317 88.4248 44.6298 86.6097L71.675 0H73.7259L101.668 92.9628H110V94H83.3391V92.9628H92.696C92.6105 92.1848 92.4396 91.3637 92.1833 90.4993C91.9269 89.5485 91.6706 88.6409 91.4142 87.7766L84.3645 64.0497H53.0895L45.7834 86.9986C45.6125 87.6901 45.4844 88.2952 45.3989 88.8138C45.3135 89.246 45.2707 89.7214 45.2707 90.24C45.2707 91.1044 45.6125 91.7959 46.2961 92.3145C46.9797 92.7467 48.4324 92.9628 50.6541 92.9628H54.7558ZM53.3458 63.0124H84.1082L69.1115 12.3172L53.3458 63.0124Z" fill="black"/>
</svg>
