<svg width="60" height="60" viewBox="0 0 60 60" fill="none" xmlns="http://www.w3.org/2000/svg">
<g clip-path="url(#clip0_344_646)">
<g opacity="0.3">
<path fill-rule="evenodd" clip-rule="evenodd" d="M41 41H19V19H41V41ZM20 40H40V20H20V40Z" fill="black"/>
<path fill-rule="evenodd" clip-rule="evenodd" d="M57 57H3V3H57V57ZM30.625 56H55.293L43.293 44H39.625L30.625 56ZM4.70703 56H29.375L20.375 44H16.707L4.70703 56ZM4 55.293L16 43.293V39.625L4 30.625V55.293ZM44 39.625V43.293L56 55.293V30.625L44 39.625ZM30 55.167L38.375 44H21.625L30 55.167ZM17 43H43V17H17V43ZM4.83301 30L16 38.374V21.625L4.83301 30ZM44 38.374L55.167 30L44 21.625V38.374ZM4 29.374L15.7002 20.5996L16 20.374V16.707L4 4.70703V29.374ZM44 16.707V20.374L44.2998 20.5996L56 29.374V4.70703L44 16.707ZM16.707 16H20.375L29.375 4H4.70703L16.707 16ZM21.625 16H38.375L30 4.83301L21.625 16ZM39.625 16H43.293L55.293 4H30.625L39.625 16Z" fill="black"/>
<path fill-rule="evenodd" clip-rule="evenodd" d="M60 60H0V0H60V60ZM1 59H59V1H1V59Z" fill="black"/>
</g>
</g>
<defs>
<clipPath id="clip0_344_646">
<rect width="60" height="60" fill="white"/>
</clipPath>
</defs>
</svg>
