<svg width="60" height="60" viewBox="0 0 60 60" fill="none" xmlns="http://www.w3.org/2000/svg">
<g clip-path="url(#clip0_344_660)">
<g opacity="0.3">
<path fill-rule="evenodd" clip-rule="evenodd" d="M10 47C11.6569 47 13 48.3431 13 50C13 51.6569 11.6569 53 10 53C8.34315 53 7 51.6569 7 50C7 48.3431 8.34315 47 10 47ZM10 48C8.89543 48 8 48.8954 8 50C8 51.1046 8.89543 52 10 52C11.1046 52 12 51.1046 12 50C12 48.8954 11.1046 48 10 48Z" fill="black"/>
<path fill-rule="evenodd" clip-rule="evenodd" d="M20 47C21.6569 47 23 48.3431 23 50C23 51.6569 21.6569 53 20 53C18.3431 53 17 51.6569 17 50C17 48.3431 18.3431 47 20 47ZM20 48C18.8954 48 18 48.8954 18 50C18 51.1046 18.8954 52 20 52C21.1046 52 22 51.1046 22 50C22 48.8954 21.1046 48 20 48Z" fill="black"/>
<path fill-rule="evenodd" clip-rule="evenodd" d="M30 47C31.6569 47 33 48.3431 33 50C33 51.6569 31.6569 53 30 53C28.3431 53 27 51.6569 27 50C27 48.3431 28.3431 47 30 47ZM30 48C28.8954 48 28 48.8954 28 50C28 51.1046 28.8954 52 30 52C31.1046 52 32 51.1046 32 50C32 48.8954 31.1046 48 30 48Z" fill="black"/>
<path fill-rule="evenodd" clip-rule="evenodd" d="M40 47C41.6569 47 43 48.3431 43 50C43 51.6569 41.6569 53 40 53C38.3431 53 37 51.6569 37 50C37 48.3431 38.3431 47 40 47ZM40 48C38.8954 48 38 48.8954 38 50C38 51.1046 38.8954 52 40 52C41.1046 52 42 51.1046 42 50C42 48.8954 41.1046 48 40 48Z" fill="black"/>
<path fill-rule="evenodd" clip-rule="evenodd" d="M50 47C51.6569 47 53 48.3431 53 50C53 51.6569 51.6569 53 50 53C48.3431 53 47 51.6569 47 50C47 48.3431 48.3431 47 50 47ZM50 48C48.8954 48 48 48.8954 48 50C48 51.1046 48.8954 52 50 52C51.1046 52 52 51.1046 52 50C52 48.8954 51.1046 48 50 48Z" fill="black"/>
<path fill-rule="evenodd" clip-rule="evenodd" d="M41 41H19V19H41V41ZM20 40H40V20H20V40Z" fill="black"/>
<path fill-rule="evenodd" clip-rule="evenodd" d="M44 44H16V16H44V44ZM17 43H43V17H17V43Z" fill="black"/>
<path fill-rule="evenodd" clip-rule="evenodd" d="M10 37C11.6569 37 13 38.3431 13 40C13 41.6569 11.6569 43 10 43C8.34315 43 7 41.6569 7 40C7 38.3431 8.34315 37 10 37ZM10 38C8.89543 38 8 38.8954 8 40C8 41.1046 8.89543 42 10 42C11.1046 42 12 41.1046 12 40C12 38.8954 11.1046 38 10 38Z" fill="black"/>
<path fill-rule="evenodd" clip-rule="evenodd" d="M50 37C51.6569 37 53 38.3431 53 40C53 41.6569 51.6569 43 50 43C48.3431 43 47 41.6569 47 40C47 38.3431 48.3431 37 50 37ZM50 38C48.8954 38 48 38.8954 48 40C48 41.1046 48.8954 42 50 42C51.1046 42 52 41.1046 52 40C52 38.8954 51.1046 38 50 38Z" fill="black"/>
<path fill-rule="evenodd" clip-rule="evenodd" d="M10 27C11.6569 27 13 28.3431 13 30C13 31.6569 11.6569 33 10 33C8.34315 33 7 31.6569 7 30C7 28.3431 8.34315 27 10 27ZM10 28C8.89543 28 8 28.8954 8 30C8 31.1046 8.89543 32 10 32C11.1046 32 12 31.1046 12 30C12 28.8954 11.1046 28 10 28Z" fill="black"/>
<path fill-rule="evenodd" clip-rule="evenodd" d="M50 27C51.6569 27 53 28.3431 53 30C53 31.6569 51.6569 33 50 33C48.3431 33 47 31.6569 47 30C47 28.3431 48.3431 27 50 27ZM50 28C48.8954 28 48 28.8954 48 30C48 31.1046 48.8954 32 50 32C51.1046 32 52 31.1046 52 30C52 28.8954 51.1046 28 50 28Z" fill="black"/>
<path fill-rule="evenodd" clip-rule="evenodd" d="M10 17C11.6569 17 13 18.3431 13 20C13 21.6569 11.6569 23 10 23C8.34315 23 7 21.6569 7 20C7 18.3431 8.34315 17 10 17ZM10 18C8.89543 18 8 18.8954 8 20C8 21.1046 8.89543 22 10 22C11.1046 22 12 21.1046 12 20C12 18.8954 11.1046 18 10 18Z" fill="black"/>
<path fill-rule="evenodd" clip-rule="evenodd" d="M50 17C51.6569 17 53 18.3431 53 20C53 21.6569 51.6569 23 50 23C48.3431 23 47 21.6569 47 20C47 18.3431 48.3431 17 50 17ZM50 18C48.8954 18 48 18.8954 48 20C48 21.1046 48.8954 22 50 22C51.1046 22 52 21.1046 52 20C52 18.8954 51.1046 18 50 18Z" fill="black"/>
<path fill-rule="evenodd" clip-rule="evenodd" d="M10 7C11.6569 7 13 8.34315 13 10C13 11.6569 11.6569 13 10 13C8.34315 13 7 11.6569 7 10C7 8.34315 8.34315 7 10 7ZM10 8C8.89543 8 8 8.89543 8 10C8 11.1046 8.89543 12 10 12C11.1046 12 12 11.1046 12 10C12 8.89543 11.1046 8 10 8Z" fill="black"/>
<path fill-rule="evenodd" clip-rule="evenodd" d="M20 7C21.6569 7 23 8.34315 23 10C23 11.6569 21.6569 13 20 13C18.3431 13 17 11.6569 17 10C17 8.34315 18.3431 7 20 7ZM20 8C18.8954 8 18 8.89543 18 10C18 11.1046 18.8954 12 20 12C21.1046 12 22 11.1046 22 10C22 8.89543 21.1046 8 20 8Z" fill="black"/>
<path fill-rule="evenodd" clip-rule="evenodd" d="M30 7C31.6569 7 33 8.34315 33 10C33 11.6569 31.6569 13 30 13C28.3431 13 27 11.6569 27 10C27 8.34315 28.3431 7 30 7ZM30 8C28.8954 8 28 8.89543 28 10C28 11.1046 28.8954 12 30 12C31.1046 12 32 11.1046 32 10C32 8.89543 31.1046 8 30 8Z" fill="black"/>
<path fill-rule="evenodd" clip-rule="evenodd" d="M40 7C41.6569 7 43 8.34315 43 10C43 11.6569 41.6569 13 40 13C38.3431 13 37 11.6569 37 10C37 8.34315 38.3431 7 40 7ZM40 8C38.8954 8 38 8.89543 38 10C38 11.1046 38.8954 12 40 12C41.1046 12 42 11.1046 42 10C42 8.89543 41.1046 8 40 8Z" fill="black"/>
<path fill-rule="evenodd" clip-rule="evenodd" d="M50 7C51.6569 7 53 8.34315 53 10C53 11.6569 51.6569 13 50 13C48.3431 13 47 11.6569 47 10C47 8.34315 48.3431 7 50 7ZM50 8C48.8954 8 48 8.89543 48 10C48 11.1046 48.8954 12 50 12C51.1046 12 52 11.1046 52 10C52 8.89543 51.1046 8 50 8Z" fill="black"/>
<path fill-rule="evenodd" clip-rule="evenodd" d="M57 57H3V3H57V57ZM4 56H56V4H4V56Z" fill="black"/>
<path fill-rule="evenodd" clip-rule="evenodd" d="M60 60H0V0H60V60ZM1 59H59V1H1V59Z" fill="black"/>
</g>
</g>
<defs>
<clipPath id="clip0_344_660">
<rect width="60" height="60" fill="white"/>
</clipPath>
</defs>
</svg>
