<svg width="60" height="60" viewBox="0 0 60 60" fill="none" xmlns="http://www.w3.org/2000/svg">
<g clip-path="url(#clip0_344_621)">
<g opacity="0.3">
<path fill-rule="evenodd" clip-rule="evenodd" d="M41 41H19V19H41V41ZM20 40H40V20H20V40Z" fill="black"/>
<path fill-rule="evenodd" clip-rule="evenodd" d="M57 57H3V3H57V57ZM16.707 44L4.70703 56H13.293L25.293 44H16.707ZM26.707 44L14.707 56H23.293L35.293 44H26.707ZM36.707 44L24.707 56H33.293L44.293 45L43.293 44H36.707ZM34.707 56H43.293L49.293 50L45 45.707L34.707 56ZM44.707 56H55.293L50 50.707L44.707 56ZM4 55.293L9.29297 50L4 44.707V55.293ZM44 43.293L56 55.293V46.707L44 34.707V43.293ZM4 43.293L10 49.293L14.293 45L4 34.707V43.293ZM44 33.293L56 45.293V36.707L44 24.707V33.293ZM4 33.293L15 44.293L16 43.293V36.707L4 24.707V33.293ZM17 43H43V17H17V43ZM44 16.707V23.293L56 35.293V26.707L45 15.707L44 16.707ZM4 23.293L16 35.293V26.707L4 14.707V23.293ZM45.707 15L56 25.293V16.707L50 10.707L45.707 15ZM4 13.293L16 25.293V16.707L4 4.70703V13.293ZM15.707 15L16.707 16H23.293L35.293 4H26.707L15.707 15ZM24.707 16H33.293L45.293 4H36.707L24.707 16ZM34.707 16H43.293L55.293 4H46.707L34.707 16ZM50.707 10L56 15.293V4.70703L50.707 10ZM10.707 10L15 14.293L25.293 4H16.707L10.707 10ZM10 9.29297L15.293 4H4.70703L10 9.29297Z" fill="black"/>
<path fill-rule="evenodd" clip-rule="evenodd" d="M60 60H0V0H60V60ZM1 59H59V1H1V59Z" fill="black"/>
</g>
</g>
<defs>
<clipPath id="clip0_344_621">
<rect width="60" height="60" fill="white"/>
</clipPath>
</defs>
</svg>
