<svg width="40" height="141" viewBox="0 0 40 141" fill="none" xmlns="http://www.w3.org/2000/svg">
<path d="M0.0541628 76.2676C-0.247602 79.5828 0.697403 83.2012 3.24557 85.8721C5.83822 88.5895 9.84754 90.076 15.1557 89.5459C17.7593 89.2859 20.1438 88.8103 22.3169 88.1387C21.6871 93.8356 19.3619 99.8392 17.2417 104.946C15.2217 109.812 14.4602 116.607 14.2729 122.93C14.1496 127.094 14.2744 131.165 14.4926 134.533L4.06002 126.213C3.19646 125.524 1.93722 125.666 1.2485 126.529C0.559784 127.393 0.702316 128.652 1.56588 129.341L15.6381 140.563C16.5017 141.252 17.76 141.111 18.4487 140.247L29.6723 126.175C30.361 125.311 30.2195 124.052 29.3559 123.363C28.4924 122.675 27.2331 122.817 26.5444 123.681L18.4546 133.824C18.2617 130.663 18.158 126.895 18.2719 123.049C18.4565 116.818 19.21 110.637 20.936 106.479C23.2577 100.887 26.1472 93.5217 26.4546 86.501C30.6422 84.4316 33.8099 81.4446 36.0268 77.7109C39.8581 71.2585 40.6578 62.9046 39.5278 54.0166C38.3561 44.8016 32.8403 37.3136 28.0874 29.6582C23.2566 21.8775 18.8852 13.5357 18.8852 2C18.8852 0.89543 17.9898 0 16.8852 0C15.7807 2.57706e-06 14.8852 0.895432 14.8852 2C14.8852 14.673 19.7414 23.7999 24.6889 31.7686C29.7143 39.8626 34.5281 46.4053 35.56 54.5215C36.6335 62.9647 35.7799 70.2921 32.5874 75.6689C31.0851 78.1989 29.0189 80.3684 26.2671 82.0439C25.9851 79.9826 25.4089 77.9639 24.4331 76.0576C22.7584 72.7863 19.9875 69.9883 15.8637 67.8916C11.5768 65.7119 7.69038 65.8779 4.75143 67.8213C1.91706 69.6957 0.354132 72.9726 0.0541628 76.2676ZM6.13912 83.1113C4.51257 81.4064 3.82287 78.9886 4.03756 76.6299C4.25419 74.2513 5.35919 72.2153 6.95748 71.1582C8.45137 70.1703 10.7628 69.7857 14.0503 71.457C17.5012 73.2117 19.6206 75.4353 20.8725 77.8809C21.8022 79.6971 22.2912 81.7145 22.435 83.8799C20.2133 84.6988 17.667 85.2759 14.7583 85.5664C10.4261 85.9991 7.72117 84.7696 6.13912 83.1113Z" fill="black"/>
</svg>
